<mxfile host="app.diagrams.net" modified="2023-11-20T19:33:47.977Z" agent="Mozilla/5.0 (Windows NT 10.0; Win64; x64) AppleWebKit/537.36 (KHTML, like Gecko) Chrome/119.0.0.0 Safari/537.36" etag="dKm13kVZ36XOXb51G7pF" version="22.1.3" type="github">
  <diagram name="Página Principal" id="_innlUNYkD_pxCBl8Joa">
    <mxGraphModel dx="2474" dy="796" grid="1" gridSize="10" guides="1" tooltips="1" connect="1" arrows="1" fold="1" page="0" pageScale="1" pageWidth="827" pageHeight="1169" math="0" shadow="0">
      <root>
        <mxCell id="0" />
        <mxCell id="1" parent="0" />
        <mxCell id="8hbP4HvkA4TKJsxGj6SK-34" value="SP&lt;br&gt;" style="strokeWidth=1;shadow=0;dashed=0;align=center;html=1;shape=mxgraph.mockup.containers.window;align=left;verticalAlign=top;spacingLeft=8;strokeColor2=#008cff;strokeColor3=#c4c4c4;fontColor=#666666;mainText=;fontSize=17;labelBackgroundColor=none;whiteSpace=wrap;fillColor=#CCCCCC;strokeColor=default;" parent="1" vertex="1">
          <mxGeometry x="-330" y="30" width="1401" height="700" as="geometry" />
        </mxCell>
        <mxCell id="8hbP4HvkA4TKJsxGj6SK-43" value="Navbar" style="html=1;shadow=0;dashed=0;fillColor=#F8F9FA;strokeColor=none;fontSize=16;fontColor=#181819;align=left;spacing=15;fillStyle=auto;strokeWidth=28;" parent="1" vertex="1">
          <mxGeometry x="-329" y="60" width="1399.5" height="50" as="geometry" />
        </mxCell>
        <mxCell id="8hbP4HvkA4TKJsxGj6SK-46" value="Navbar" style="html=1;shadow=0;dashed=0;fillColor=#F8F9FA;strokeColor=none;fontSize=16;fontColor=#181819;align=left;spacing=15;fillStyle=auto;" parent="1" vertex="1">
          <mxGeometry x="-329" y="690" width="1399" height="40" as="geometry" />
        </mxCell>
        <mxCell id="86xsszOPzQ_2zuVoXFQx-23" value="" style="html=1;shadow=0;dashed=0;shape=mxgraph.bootstrap.rrect;rSize=0;strokeColor=#DFDFDF;html=1;whiteSpace=wrap;fillColor=#FFFFFF;fontColor=#000000;strokeWidth=0;" parent="1" vertex="1">
          <mxGeometry x="-324" y="115" width="231.5" height="571" as="geometry" />
        </mxCell>
        <mxCell id="86xsszOPzQ_2zuVoXFQx-24" value="Projetos" style="strokeColor=inherit;fillColor=inherit;gradientColor=inherit;fontColor=inherit;html=1;shadow=0;dashed=0;shape=mxgraph.bootstrap.topButton;rSize=0;perimeter=none;whiteSpace=wrap;resizeWidth=1;align=left;spacing=10;" parent="86xsszOPzQ_2zuVoXFQx-23" vertex="1">
          <mxGeometry width="231.5" height="30" relative="1" as="geometry" />
        </mxCell>
        <mxCell id="86xsszOPzQ_2zuVoXFQx-25" value="XXXX" style="strokeColor=inherit;fillColor=inherit;gradientColor=inherit;fontColor=inherit;html=1;shadow=0;dashed=0;perimeter=none;whiteSpace=wrap;resizeWidth=1;align=left;spacing=10;" parent="86xsszOPzQ_2zuVoXFQx-23" vertex="1">
          <mxGeometry width="231.5" height="30" relative="1" as="geometry">
            <mxPoint y="30" as="offset" />
          </mxGeometry>
        </mxCell>
        <mxCell id="86xsszOPzQ_2zuVoXFQx-30" value="XXXX" style="strokeColor=inherit;fillColor=inherit;gradientColor=inherit;fontColor=inherit;html=1;shadow=0;dashed=0;perimeter=none;whiteSpace=wrap;resizeWidth=1;align=left;spacing=10;" parent="86xsszOPzQ_2zuVoXFQx-23" vertex="1">
          <mxGeometry y="150" width="231.5" height="30" as="geometry" />
        </mxCell>
        <mxCell id="86xsszOPzQ_2zuVoXFQx-32" value="XXXX" style="strokeColor=inherit;fillColor=inherit;gradientColor=inherit;fontColor=inherit;html=1;shadow=0;dashed=0;perimeter=none;whiteSpace=wrap;resizeWidth=1;align=left;spacing=10;" parent="86xsszOPzQ_2zuVoXFQx-23" vertex="1">
          <mxGeometry y="120" width="231.5" height="30" as="geometry" />
        </mxCell>
        <mxCell id="86xsszOPzQ_2zuVoXFQx-31" value="XXXX" style="strokeColor=inherit;fillColor=inherit;gradientColor=inherit;fontColor=inherit;html=1;shadow=0;dashed=0;perimeter=none;whiteSpace=wrap;resizeWidth=1;align=left;spacing=10;" parent="86xsszOPzQ_2zuVoXFQx-23" vertex="1">
          <mxGeometry y="90" width="231.5" height="30" as="geometry" />
        </mxCell>
        <mxCell id="86xsszOPzQ_2zuVoXFQx-29" value="" style="shape=line;strokeColor=#dddddd;resizeWidth=1;strokeWidth=4;gradientColor=none;gradientDirection=north;labelPadding=0;direction=east;fixDash=0;" parent="1" vertex="1">
          <mxGeometry x="-329" y="683" width="240" height="10" as="geometry" />
        </mxCell>
        <mxCell id="86xsszOPzQ_2zuVoXFQx-36" value="" style="shape=line;strokeColor=default;resizeWidth=1;strokeWidth=1;gradientColor=none;gradientDirection=north;labelPadding=0;direction=east;fixDash=0;" parent="1" vertex="1">
          <mxGeometry x="-330.5" y="58" width="1" height="4" as="geometry" />
        </mxCell>
        <mxCell id="86xsszOPzQ_2zuVoXFQx-37" value="" style="shape=line;strokeColor=default;resizeWidth=1;strokeWidth=1;gradientColor=none;gradientDirection=north;labelPadding=0;direction=east;fixDash=0;" parent="1" vertex="1">
          <mxGeometry x="1070.5" y="58" width="1" height="4" as="geometry" />
        </mxCell>
        <mxCell id="86xsszOPzQ_2zuVoXFQx-8" value="" style="shape=line;strokeColor=#DDDDDD;resizeWidth=1;strokeWidth=5;gradientColor=none;gradientDirection=north;labelPadding=0;direction=east;fixDash=0;fillColor=#DDDDDD;" parent="1" vertex="1">
          <mxGeometry x="-329" y="110" width="241" height="5" as="geometry" />
        </mxCell>
        <mxCell id="pD7XZsRiSOlmIq55k2k5-1" value="" style="shape=rect;fillColor=#DDDDDD;strokeColor=none;shadow=0;perimeter=rectanglePerimeter;align=center;" vertex="1" parent="1">
          <mxGeometry x="-93" y="110" width="1163.5" height="580" as="geometry" />
        </mxCell>
        <mxCell id="86xsszOPzQ_2zuVoXFQx-33" value="" style="html=1;shadow=0;dashed=0;shape=mxgraph.bootstrap.rrect;rSize=5;strokeColor=none;html=1;whiteSpace=wrap;fillColor=#E9ECEF;fontColor=#474E4F;align=center;spacing=15;fontSize=14;verticalAlign=top;spacingTop=40;" parent="1" vertex="1">
          <mxGeometry x="-80.5" y="120" width="1140" height="563" as="geometry" />
        </mxCell>
        <mxCell id="pD7XZsRiSOlmIq55k2k5-36" value="" style="shape=line;strokeColor=#DDDDDD;resizeWidth=1;strokeWidth=5;gradientColor=none;gradientDirection=north;labelPadding=0;direction=east;fixDash=0;fillColor=#DDDDDD;rotation=90;" vertex="1" parent="1">
          <mxGeometry x="-612.18" y="398.19" width="571.37" height="5" as="geometry" />
        </mxCell>
        <mxCell id="pD7XZsRiSOlmIq55k2k5-95" value="" style="dashed=0;shape=rect;strokeColor=none;fillColor=#F8F9FA;whiteSpace=wrap;html=1;" vertex="1" parent="1">
          <mxGeometry x="836" y="60" width="234" height="50" as="geometry" />
        </mxCell>
        <mxCell id="pD7XZsRiSOlmIq55k2k5-96" value="" style="dashed=0;shape=mxgraph.gmdl.user;strokeColor=none;fillColor=#666666;" vertex="1" parent="pD7XZsRiSOlmIq55k2k5-95">
          <mxGeometry y="0.5" width="36" height="36" relative="1" as="geometry">
            <mxPoint x="10" y="-18" as="offset" />
          </mxGeometry>
        </mxCell>
        <mxCell id="pD7XZsRiSOlmIq55k2k5-97" value="&lt;font color=&quot;#000000&quot;&gt;NOME USUÁRIO&lt;/font&gt;" style="text;fontSize=16;fontColor=#ffffff;spacingTop=-3;verticalAlign=bottom;spacingLeft=55;whiteSpace=wrap;html=1;" vertex="1" parent="pD7XZsRiSOlmIq55k2k5-95">
          <mxGeometry y="2.7777777777777777" width="234" height="20.833333333333332" as="geometry" />
        </mxCell>
        <mxCell id="pD7XZsRiSOlmIq55k2k5-98" value="&lt;font color=&quot;#000000&quot;&gt;EMAIL@example.com&lt;/font&gt;" style="text;fontSize=14;fontColor=#ffffff;spacingTop=-3;verticalAlign=top;textOpacity=60;spacingLeft=55;whiteSpace=wrap;html=1;" vertex="1" parent="pD7XZsRiSOlmIq55k2k5-95">
          <mxGeometry y="23.61111111111111" width="234" height="20.833333333333332" as="geometry" />
        </mxCell>
        <mxCell id="pD7XZsRiSOlmIq55k2k5-101" value="" style="shape=table;html=1;whiteSpace=wrap;startSize=0;container=1;collapsible=0;childLayout=tableLayout;strokeWidth=2;" vertex="1" parent="1">
          <mxGeometry x="390" y="360" width="180" height="73" as="geometry" />
        </mxCell>
        <mxCell id="pD7XZsRiSOlmIq55k2k5-102" value="" style="shape=tableRow;horizontal=0;startSize=0;swimlaneHead=0;swimlaneBody=0;top=0;left=0;bottom=0;right=0;collapsible=0;dropTarget=0;fillColor=none;points=[[0,0.5],[1,0.5]];portConstraint=eastwest;" vertex="1" parent="pD7XZsRiSOlmIq55k2k5-101">
          <mxGeometry width="180" height="20" as="geometry" />
        </mxCell>
        <mxCell id="pD7XZsRiSOlmIq55k2k5-103" value="Header 1" style="shape=partialRectangle;html=1;whiteSpace=wrap;connectable=0;fillColor=none;top=0;left=0;bottom=0;right=0;overflow=hidden;fontStyle=1" vertex="1" parent="pD7XZsRiSOlmIq55k2k5-102">
          <mxGeometry width="90" height="20" as="geometry">
            <mxRectangle width="90" height="20" as="alternateBounds" />
          </mxGeometry>
        </mxCell>
        <mxCell id="pD7XZsRiSOlmIq55k2k5-104" value="Header 2" style="shape=partialRectangle;html=1;whiteSpace=wrap;connectable=0;fillColor=none;top=0;left=0;bottom=0;right=0;overflow=hidden;fontStyle=1" vertex="1" parent="pD7XZsRiSOlmIq55k2k5-102">
          <mxGeometry x="90" width="90" height="20" as="geometry">
            <mxRectangle width="90" height="20" as="alternateBounds" />
          </mxGeometry>
        </mxCell>
        <mxCell id="pD7XZsRiSOlmIq55k2k5-105" value="" style="shape=tableRow;horizontal=0;startSize=0;swimlaneHead=0;swimlaneBody=0;top=0;left=0;bottom=0;right=0;collapsible=0;dropTarget=0;fillColor=none;points=[[0,0.5],[1,0.5]];portConstraint=eastwest;" vertex="1" parent="pD7XZsRiSOlmIq55k2k5-101">
          <mxGeometry y="20" width="180" height="26" as="geometry" />
        </mxCell>
        <mxCell id="pD7XZsRiSOlmIq55k2k5-106" value="row 1, cell 1" style="shape=partialRectangle;html=1;whiteSpace=wrap;connectable=0;fillColor=none;top=0;left=0;bottom=0;right=0;overflow=hidden;" vertex="1" parent="pD7XZsRiSOlmIq55k2k5-105">
          <mxGeometry width="90" height="26" as="geometry">
            <mxRectangle width="90" height="26" as="alternateBounds" />
          </mxGeometry>
        </mxCell>
        <mxCell id="pD7XZsRiSOlmIq55k2k5-107" value="row 1, cell 2" style="shape=partialRectangle;html=1;whiteSpace=wrap;connectable=0;fillColor=none;top=0;left=0;bottom=0;right=0;overflow=hidden;" vertex="1" parent="pD7XZsRiSOlmIq55k2k5-105">
          <mxGeometry x="90" width="90" height="26" as="geometry">
            <mxRectangle width="90" height="26" as="alternateBounds" />
          </mxGeometry>
        </mxCell>
        <mxCell id="pD7XZsRiSOlmIq55k2k5-108" value="" style="shape=tableRow;horizontal=0;startSize=0;swimlaneHead=0;swimlaneBody=0;top=0;left=0;bottom=0;right=0;collapsible=0;dropTarget=0;fillColor=none;points=[[0,0.5],[1,0.5]];portConstraint=eastwest;" vertex="1" parent="pD7XZsRiSOlmIq55k2k5-101">
          <mxGeometry y="46" width="180" height="27" as="geometry" />
        </mxCell>
        <mxCell id="pD7XZsRiSOlmIq55k2k5-109" value="row 2, cell 1" style="shape=partialRectangle;html=1;whiteSpace=wrap;connectable=0;fillColor=none;top=0;left=0;bottom=0;right=0;overflow=hidden;" vertex="1" parent="pD7XZsRiSOlmIq55k2k5-108">
          <mxGeometry width="90" height="27" as="geometry">
            <mxRectangle width="90" height="27" as="alternateBounds" />
          </mxGeometry>
        </mxCell>
        <mxCell id="pD7XZsRiSOlmIq55k2k5-110" value="row 2, cell 2" style="shape=partialRectangle;html=1;whiteSpace=wrap;connectable=0;fillColor=none;top=0;left=0;bottom=0;right=0;overflow=hidden;" vertex="1" parent="pD7XZsRiSOlmIq55k2k5-108">
          <mxGeometry x="90" width="90" height="27" as="geometry">
            <mxRectangle width="90" height="27" as="alternateBounds" />
          </mxGeometry>
        </mxCell>
      </root>
    </mxGraphModel>
  </diagram>
</mxfile>
